<?xml version="1.0" encoding="utf-8"?>
<!-- Generator: Adobe Illustrator 15.0.0, SVG Export Plug-In . SVG Version: 6.00 Build 0)  -->
<!DOCTYPE svg PUBLIC "-//W3C//DTD SVG 1.1//EN" "http://www.w3.org/Graphics/SVG/1.1/DTD/svg11.dtd">
<svg version="1.1" id="Layer_1" xmlns="http://www.w3.org/2000/svg" xmlns:xlink="http://www.w3.org/1999/xlink" x="0px" y="0px"
	 width="24px" height="16.021px" viewBox="0 0 24 16.021" enable-background="new 0 0 24 16.021" xml:space="preserve">
<rect x="-0.5" y="-0.255" opacity="0.8" fill="#FFFFFF" width="24.917" height="16.275"/>
<g opacity="0.8">
	<defs>
		<rect id="SVGID_1_" x="1.592" y="1.314" opacity="0.8" width="20.838" height="13.113"/>
	</defs>
	<clipPath id="SVGID_2_">
		<use xlink:href="#SVGID_1_"  overflow="visible"/>
	</clipPath>
	<g clip-path="url(#SVGID_2_)">
		<polygon fill="#010101" points="12.012,9.01 -2.835,-2.208 12.012,-13.424 26.858,-2.208 		"/>
		<polygon fill="#010101" points="8.353,31.655 -6.494,20.439 8.353,9.22 23.201,20.439 		"/>
		<polygon fill="#010101" points="15.545,31.655 0.698,20.439 15.545,9.22 30.391,20.439 		"/>
		<polygon fill="#010101" points="-8.462,18.936 -23.309,7.719 -8.462,-3.499 6.384,7.719 		"/>
		<polygon fill="#010101" points="32.5,19.024 17.652,7.808 32.5,-3.41 47.345,7.808 		"/>
	</g>
	<g clip-path="url(#SVGID_2_)">
		<path fill="#FFFFFF" d="M22.431,1.314v13.113H1.592V1.314H22.431 M24.361-0.617h-1.931H1.592h-1.931v1.931v13.113v1.931h1.931
			h20.838h1.931v-1.931V1.314V-0.617L24.361-0.617z"/>
	</g>
</g>
</svg>
