<?xml version="1.0" encoding="utf-8"?>
<!-- Generator: Adobe Illustrator 15.0.0, SVG Export Plug-In . SVG Version: 6.00 Build 0)  -->
<!DOCTYPE svg PUBLIC "-//W3C//DTD SVG 1.1//EN" "http://www.w3.org/Graphics/SVG/1.1/DTD/svg11.dtd">
<svg version="1.1" id="Layer_1" xmlns="http://www.w3.org/2000/svg" xmlns:xlink="http://www.w3.org/1999/xlink" x="0px" y="0px"
	 width="60px" height="60px" viewBox="0 0 60 60" enable-background="new 0 0 60 60" xml:space="preserve">
<rect x="-1.272" y="-1.373" fill="#151118" width="61.954" height="62.568"/>
<g>
	<defs>
		<rect id="SVGID_1_" x="-0.333" y="-0.591" width="60.232" height="60.979"/>
	</defs>
	<clipPath id="SVGID_2_">
		<use xlink:href="#SVGID_1_"  overflow="visible"/>
	</clipPath>
	<path clip-path="url(#SVGID_2_)" fill="#FFFFFF" d="M8.569,30.44l-0.354,1.051h6.547l-0.908,3.293l-1.847,6.473
		c-1.873,6.729-2.27,6.927-5.193,7.41l0.056,0.852c5.11-0.453,7.721-0.908,8.829-3.265c0.512-1.05,1.277-3.89,1.789-5.706
		l2.894-10.107C16.866,30.456,12.21,30.411,8.569,30.44"/>
	<path clip-path="url(#SVGID_2_)" fill="#FFFFFF" d="M18.737,28.88c1.447,0,2.667-1.164,2.667-2.669c0-1.476-1.22-2.669-2.667-2.669
		c-1.506,0-2.669,1.193-2.669,2.669c0,0.71,0.283,1.391,0.765,1.902C17.318,28.595,18.027,28.88,18.737,28.88"/>
	<path clip-path="url(#SVGID_2_)" fill="#FFFFFF" d="M33.583,30.271c-3.039,0-4.601,2.327-4.998,2.952l0.739-2.668
		c-3.151,0.084-4.061,0.112-7.807,0.112l-0.255,0.824h2.582l-1.334,4.825l-2.896,9.994l-1.222,4.201h5.281l2.384-8.461
		c0.057,0.199,0.114,0.398,0.172,0.567c0.113,0.256,0.823,2.13,3.577,2.13c4.826,0,8.119-5.849,8.119-9.766
		C37.927,31.917,36.053,30.271,33.583,30.271 M30.459,41.257c-0.54,1.078-1.164,2.017-2.099,2.017c-1.535,0-1.535-2.158-1.535-2.498
		c0-2.584,2.215-8.744,4.629-8.772c0.851,0,1.192,0.625,1.192,1.42C32.646,35.125,31.312,39.47,30.459,41.257"/>
	<path clip-path="url(#SVGID_2_)" fill="#FFFFFF" d="M49.051,34.104l-0.026,0.255c0,1.192,0.85,1.789,1.844,1.789
		c1.362,0,2.242-1.135,2.242-2.47c0-1.675-1.391-3.464-4.711-3.464c-5.765,0-9.597,5.053-9.597,9.283
		c0,2.811,1.816,5.224,5.535,5.224c4.031,0,6.16-2.839,7.41-4.599l-0.795-0.541c-1.164,1.647-2.754,3.607-4.713,3.607
		c-0.965,0-2.157-0.568-2.157-2.669c0-2.612,2.469-9.397,4.825-9.397c0.483,0,0.768,0.397,0.768,0.824
		c0,0.198-0.057,0.396-0.142,0.596C49.364,33.081,49.109,33.563,49.051,34.104"/>
</g>
</svg>
